<svg
  version="1.1"
  baseProfile="full"
  width="100%" height="100%"
  xmlns="http://www.w3.org/2000/svg"
  viewBox="0 0 1400 800"
>

  <rect x="1300" y="400" rx="40" ry="40" width="300" height="300" stroke="rgb(129, 201, 149)" fill="rgb(129, 201, 149)">
    <animateTransform attributeType="XML" attributeName="transform" begin="0s" dur="35s" type="rotate" from="0 1450 550" to="360 1450 550" repeatCount="indefinite" />
  </rect>

  <path d="M 100 350 A 150 150 0 1 1 400 350 Q400 370 380 370 L 250 370 L 120 370 Q100 370 100 350" stroke="rgb(253, 214, 99)" fill="rgb(253, 214, 99)">
    <animateMotion path="M 800 -200 L 800 -300 L 800 -200" dur="40s" begin="0s" repeatCount="indefinite" />
    <animateTransform attributeType="XML" attributeName="transform" begin="0s" dur="30s" type="rotate" values="0 210 530 ; -30 210 530 ; 0 210 530" keyTimes="0 ; 0.5 ; 1" repeatCount="indefinite" />
  </path>

  <circle cx="200" cy="150" r="25" stroke="#1a73e8" fill="#1a73e8">
    <animateMotion path="M 0 0 L -200 100 L 200 200 Z" dur="45s" repeatCount="indefinite" />
  </circle>

  <!-- 三角形 -->
  <path d="M 165 580 L 270 580 Q275 578 270 570 L 223 483 Q220 480 217 483 L 165 570 Q160 578 165 580" stroke="rgb(238, 103, 92)" fill="rgb(238, 103, 92)">
    <animateTransform attributeType="XML" attributeName="transform" begin="0s" dur="6s" type="rotate" from="0 210 530" to="360 200 520" repeatCount="indefinite" />
  </path>

<!--   <circle cx="1200" cy="600" r="30" stroke="rgb(241, 243, 244)" fill="rgb(241, 243, 244)">
    <animateMotion path="M 0 0 L -20 40 Z" dur="9s" repeatCount="indefinite" />
  </circle> -->

  <path d="M 400 350 A 40 40 0 1 1 480 350 L 480 430 A 40 40 0 1 1 400 430 Z" stroke="rgb(241, 100, 200)" fill="rgb(241, 100, 200)">
    <!-- <animateMotion path="M 140 390 L 180 360 L 140 390" dur="20s" begin="0s" repeatCount="indefinite" /> -->
    <animateTransform attributeType="XML" attributeName="transform" begin="0s" dur="50s" type="rotate" from="0 340 350" to="-360 340 350" repeatCount="indefinite" />
  </path>

  <rect x="800" y="400" rx="40" ry="40" width="100" height="100" stroke="rgb(129, 201, 149)" fill="rgb(0, 201, 149)">
    <animateTransform attributeType="XML" attributeName="transform" begin="0s" dur="15s" type="rotate" from="0 800 400" to="360 600 400" repeatCount="indefinite" />
  </rect>
</svg>
